<?xml version="1.0" standalone="no"?>
<!DOCTYPE svg PUBLIC "-//W3C//DTD SVG 20010904//EN"
 "http://www.w3.org/TR/2001/REC-SVG-20010904/DTD/svg10.dtd">
<svg version="1.0" xmlns="http://www.w3.org/2000/svg"
 width="700.000000pt" height="700.000000pt" viewBox="0 0 700.000000 700.000000"
 preserveAspectRatio="xMidYMid meet">
<g transform="translate(0.000000,700.000000) scale(0.100000,-0.100000)"
fill="#000000" stroke="none">
<path d="M3196 6989 c-1244 -89 -2206 -674 -2754 -1674 -398 -725 -536 -1656
-376 -2540 186 -1033 743 -1849 1591 -2329 651 -368 1549 -521 2418 -410 955
122 1748 580 2272 1312 526 735 750 1728 613 2714 -88 632 -310 1182 -672
1667 -119 160 -401 448 -548 561 -620 477 -1375 715 -2250 709 -102 -1 -234
-5 -294 -10z m634 -1124 c1032 -153 1847 -955 2031 -2000 27 -152 37 -473 20
-636 -26 -252 -106 -544 -209 -762 -329 -696 -987 -1193 -1752 -1321 -246 -41
-544 -45 -769 -11 -778 120 -1442 609 -1791 1320 -116 236 -183 447 -227 710
-26 158 -26 564 0 720 42 250 111 466 216 680 361 733 1098 1233 1934 1315
125 12 419 4 547 -15z"/>
<path d="M3045 3329 c-431 -23 -873 -92 -1240 -193 -141 -38 -135 -17 -69
-216 100 -300 250 -538 480 -760 537 -517 1301 -658 1989 -367 320 136 607
376 810 678 107 159 239 461 260 594 l7 40 -139 38 c-396 106 -768 162 -1243
187 -222 11 -634 11 -855 -1z"/>
</g>
</svg>
